<svg id="Layer_1" enable-background="new 0 0 512 512" viewBox="0 0 512 512" xmlns="http://www.w3.org/2000/svg"><path d="m116.158 395.215c9.255-6.59 15.309-17.398 15.309-29.599 0-20.029-16.295-36.324-36.324-36.324-20.028 0-36.323 16.295-36.323 36.324 0 12.201 6.054 23.009 15.309 29.599-27.881 8.916-48.129 35.067-48.129 65.867 0 2.762 2.238 5 5 5h128.285c2.762 0 5-2.238 5-5 0-30.8-20.247-56.951-48.127-65.867zm-47.339-29.599c0-14.516 11.809-26.324 26.323-26.324 14.516 0 26.324 11.809 26.324 26.324s-11.809 26.323-26.324 26.323c-14.514 0-26.323-11.808-26.323-26.323zm-32.61 90.466c2.547-30.28 28.006-54.143 58.934-54.143s56.387 23.862 58.934 54.143zm240.806-60.867c9.255-6.59 15.309-17.398 15.309-29.599 0-20.029-16.295-36.324-36.324-36.324-20.028 0-36.323 16.295-36.323 36.324 0 12.201 6.054 23.009 15.309 29.599-27.88 8.916-48.127 35.067-48.127 65.867 0 2.762 2.238 5 5 5h128.284c2.762 0 5-2.238 5-5 0-30.8-20.248-56.951-48.128-65.867zm-47.338-29.599c0-14.516 11.809-26.324 26.323-26.324 14.516 0 26.324 11.809 26.324 26.324s-11.809 26.323-26.324 26.323-26.323-11.808-26.323-26.323zm-32.61 90.466c2.547-30.28 28.006-54.143 58.933-54.143 30.928 0 56.387 23.862 58.934 54.143zm240.806-60.867c9.255-6.59 15.309-17.397 15.309-29.599 0-20.029-16.295-36.324-36.323-36.324-20.029 0-36.324 16.295-36.324 36.324 0 12.201 6.054 23.009 15.309 29.599-27.88 8.916-48.127 35.067-48.127 65.867 0 2.762 2.238 5 5 5h128.283c2.762 0 5-2.238 5-5 0-30.8-20.247-56.951-48.127-65.867zm-47.339-29.599c0-14.516 11.809-26.324 26.324-26.324s26.323 11.809 26.323 26.324-11.809 26.323-26.323 26.323c-14.515 0-26.324-11.808-26.324-26.323zm-32.609 90.466c2.547-30.28 28.006-54.143 58.934-54.143 30.927 0 56.386 23.862 58.933 54.143zm-116.248-347.835c-22.323 0-40.484 18.162-40.484 40.485s18.161 40.485 40.484 40.485 40.485-18.162 40.485-40.485-18.162-40.485-40.485-40.485zm0 70.971c-16.81 0-30.484-13.676-30.484-30.485s13.675-30.485 30.484-30.485 30.485 13.676 30.485 30.485-13.676 30.485-30.485 30.485zm136.814 3.695c-.345-1.555-1.41-2.852-2.868-3.493-1.456-.641-3.135-.551-4.513.247l-26.722 15.428c-1.68.97-3.65 1.225-5.543.717-1.896-.509-3.474-1.713-4.443-3.393-2.016-3.49-.814-7.971 2.676-9.986l26.722-15.428c1.379-.796 2.297-2.202 2.47-3.785.174-1.583-.417-3.153-1.591-4.23-4.136-3.793-8.806-6.71-13.766-8.733.079-5.765-.286-11.538-1.102-17.213-1.286-8.922-8.756-15.391-17.768-15.391-.022 0-.039 0-.058 0-7.599 0-14.409-3.938-18.221-10.537-3.817-6.608-3.82-14.487-.007-21.075 4.509-7.791 2.656-17.496-4.405-23.076-8.28-6.544-17.432-11.839-27.201-15.739-8.373-3.341-17.719-.095-22.217 7.725-3.795 6.603-10.62 10.544-18.256 10.545-7.638 0-14.464-3.941-18.261-10.545-4.496-7.82-13.842-11.068-22.216-7.725-9.764 3.897-18.915 9.192-27.2 15.739-7.063 5.58-8.915 15.285-4.406 23.076 3.813 6.588 3.811 14.467-.007 21.076-3.812 6.6-10.621 10.536-18.221 10.536-.02 0-.038 0-.058 0-9.013 0-16.482 6.47-17.768 15.392-1.499 10.405-1.499 20.962 0 31.376 1.286 8.922 8.756 15.391 17.768 15.391h.058c7.599 0 14.409 3.938 18.221 10.537 3.817 6.608 3.82 14.487.007 21.076-4.509 7.79-2.656 17.495 4.406 23.075 8.285 6.547 17.437 11.842 27.2 15.738 2.215.884 4.496 1.308 6.738 1.308 6.239-.001 12.171-3.279 15.477-9.031 3.286-5.714 8.92-9.496 15.457-10.376 4.824-.646 9.586.362 13.629 2.799l-17.989 17.99c-4.251 4.251-6.591 9.914-6.59 15.947.001 6.032 2.343 11.694 6.595 15.944l7.173 7.167c4.395 4.393 10.165 6.588 15.938 6.588s11.548-2.198 15.942-6.593l53.632-53.631c10.138 1.44 20.48-.552 29.399-5.701 17.461-10.081 26.256-30.068 21.889-49.736zm-140.951 39.315c-9.639 1.297-17.945 6.874-22.792 15.302-1.99 3.464-6.131 4.901-9.839 3.421-8.867-3.539-17.181-8.35-24.708-14.297-3.127-2.472-3.948-6.771-1.951-10.221 5.627-9.722 5.626-21.343-.002-31.087-5.62-9.73-15.665-15.535-26.878-15.535-.021 0-.04 0-.059 0-3.992 0-7.301-2.865-7.87-6.816-1.364-9.468-1.364-19.064 0-28.524.568-3.952 3.877-6.817 7.869-6.817h.059c11.213-.001 21.26-5.806 26.879-15.535 5.628-9.743 5.629-21.365.002-31.086-1.997-3.451-1.176-7.75 1.951-10.222 7.528-5.947 15.841-10.758 24.708-14.298 3.708-1.481 7.849-.042 9.84 3.422 5.603 9.744 15.67 15.561 26.93 15.561 11.259-.001 21.324-5.817 26.925-15.561 1.993-3.463 6.133-4.902 9.841-3.422 8.872 3.542 17.186 8.353 24.708 14.298 3.127 2.472 3.948 6.771 1.951 10.221-5.627 9.722-5.626 21.343.002 31.087 5.62 9.73 15.665 15.535 26.878 15.535h.06c3.991 0 7.3 2.865 7.869 6.816.617 4.286.948 8.635 1.003 12.991-10.157-1.63-20.824.174-30.252 5.618-16.335 9.432-25.154 27.748-22.527 46.227l-28.419 28.419c-6.376-4.577-14.221-6.568-22.178-5.497zm88.952 5.857c-1.644-.333-3.346.179-4.53 1.364l-55.461 55.461c-4.892 4.89-12.85 4.892-17.741.002l-7.173-7.167c-2.361-2.361-3.663-5.512-3.663-8.873-.001-3.361 1.299-6.513 3.66-8.874l55.453-55.453c1.187-1.186 1.698-2.887 1.364-4.53-3.078-15.156 3.859-30.538 17.262-38.276 5.642-3.257 11.851-4.852 18.014-4.852 6.488 0 12.926 1.767 18.599 5.225l-20.197 11.661c-8.266 4.772-11.107 15.381-6.336 23.646 2.306 3.993 6.04 6.853 10.516 8.051 4.473 1.2 9.139.592 13.131-1.715l20.197-11.661c.309 12.952-6.401 25.208-17.983 31.895-7.599 4.386-16.515 5.841-25.112 4.096zm75.908-51.986c-2.067-1.831-2.26-4.991-.43-7.059 1.831-2.066 4.989-2.259 7.059-.43 35.298 31.249 44.93 81.826 24.628 123.489l10.484-3.997c2.582-.984 5.47.311 6.453 2.891s-.311 5.47-2.891 6.453l-22.39 8.535c-.586.224-1.188.329-1.78.329-1.965 0-3.823-1.166-4.62-3.086l-9.177-22.135c-1.057-2.551.153-5.477 2.704-6.534 2.552-1.054 5.476.153 6.534 2.704l4.951 11.944c19.315-37.935 10.803-84.485-21.525-113.104zm-309.912.497-11.2.686c-2.753.194-5.127-1.929-5.296-4.685s1.929-5.127 4.685-5.296l23.917-1.465c2.689-.17 5.043 1.847 5.285 4.541l2.152 23.865c.248 2.75-1.78 5.181-4.53 5.429-2.741.25-5.18-1.779-5.429-4.53l-1.162-12.878c-29.754 30.443-35.521 77.414-13.21 114.376 1.427 2.364.668 5.438-1.696 6.864-.809.488-1.699.721-2.579.721-1.694 0-3.346-.861-4.285-2.417-24.364-40.359-18.462-91.506 13.348-125.211z"/></svg>